<svg xmlns="http://www.w3.org/2000/svg" width="840" height="420"><rect width="100%" height="100%" fill="white"/><text x="420.0" y="24" text-anchor="middle" font-family="Arial" font-size="16" font-weight="bold">Classical search on unit-cost maps</text><line x1="70" y1="350" x2="815" y2="350" stroke="#333"/><text x="18" y="210.0" transform="rotate(-90 18 210.0)" text-anchor="middle" font-family="Arial" font-size="11">Measured value</text><rect x="90" y="349.8717402148442" width="24" height="0.12825978515579686" fill="#2b6cb0"/><rect x="118" y="348.53385797313285" width="24" height="1.4661420268671261" fill="#c05621"/><text x="114" y="368" text-anchor="middle" font-family="Arial" font-size="10">BFS</text><rect x="182" y="349.80451439641774" width="24" height="0.19548560358228348" fill="#2b6cb0"/><rect x="210" y="349.7448072550521" width="24" height="0.25519274494791305" fill="#c05621"/><text x="206" y="368" text-anchor="middle" font-family="Arial" font-size="10">DFS</text><rect x="274" y="349.8717402148442" width="24" height="0.12825978515579686" fill="#2b6cb0"/><rect x="302" y="45.0" width="24" height="305.0" fill="#c05621"/><text x="298" y="368" text-anchor="middle" font-family="Arial" font-size="10">IDS</text><rect x="366" y="349.8717402148442" width="24" height="0.12825978515579686" fill="#2b6cb0"/><rect x="394" y="348.53385797313285" width="24" height="1.4661420268671261" fill="#c05621"/><text x="390" y="368" text-anchor="middle" font-family="Arial" font-size="10">UCS</text><rect x="458" y="349.8584719612074" width="24" height="0.14152803879260342" fill="#2b6cb0"/><rect x="486" y="349.8191094754182" width="24" height="0.18089052458179627" fill="#c05621"/><text x="482" y="368" text-anchor="middle" font-family="Arial" font-size="10">Greedy</text><rect x="550" y="349.8717402148442" width="24" height="0.12825978515579686" fill="#2b6cb0"/><rect x="578" y="348.9845363216631" width="24" height="1.0154636783369295" fill="#c05621"/><text x="574" y="368" text-anchor="middle" font-family="Arial" font-size="10">A*</text><rect x="650" y="42" width="12" height="12" fill="#2b6cb0"/><text x="668" y="52" font-family="Arial" font-size="11">Mean path cost</text><rect x="650" y="62" width="12" height="12" fill="#c05621"/><text x="668" y="72" font-family="Arial" font-size="11">Mean nodes expanded</text></svg>